<?xml version="1.0" encoding="utf-8"?>
<!-- Generator: Adobe Illustrator 25.2.3, SVG Export Plug-In . SVG Version: 6.00 Build 0)  -->
<svg version="1.1" xmlns="http://www.w3.org/2000/svg" xmlns:xlink="http://www.w3.org/1999/xlink" x="0px" y="0px"
	 viewBox="0 0 389 345.4" style="enable-background:new 0 0 389 345.4;" xml:space="preserve">
<style type="text/css">
	.st0{fill:#231F20;}
	.st1{fill:#13AFF0;}
</style>
<g id="ArtStation_Type">
	<path class="st0" d="M50.8,345v-50.8h21.5c8.8,0,14.1,5.4,14.1,11.2v10.8c0,4.1-2.8,8-7.5,9.9l8.6,18.9h-9.9l-8.1-17.8h-9.4V345
		H50.8z M60.2,302.6v16.2h11.4c3,0,5.5-1.7,5.5-4.7v-6.7c0-3.1-2.6-4.8-5.9-4.8H60.2z"/>
	<polygon class="st0" points="105.1,345 105.1,302.5 92.5,302.5 92.5,294.1 126,294.1 126,302.5 114.4,302.5 114.4,345 	"/>
	<path class="st0" d="M137.4,330.5v3.3c0,4.5,4.2,7.9,9.6,7.9h6c5.6,0,9.9-2.7,9.9-7.4v-3.6c0-7.8-28.1-9.3-28.1-22.7v-4.6
		c0-5.1,4.9-9.6,11.4-9.6h6.7c7.3,0,12.7,4.9,12.7,10.4v4.6h-4.2V305c0-4.2-3.9-7.4-8.8-7.4h-5.8c-4.3,0-7.8,2.8-7.8,6.5v3.7
		c0,10,28.1,11.3,28.1,22.3v4.9c0,6.4-5.9,10.4-13.8,10.4h-6.5c-7.9,0-13.7-5.1-13.7-11v-3.9H137.4z"/>
	<polygon class="st0" points="188.2,345 188.2,297.9 174,297.9 174,294.2 206,294.2 206,297.9 192.4,297.9 192.4,345 	"/>
	<path class="st0" d="M228.7,293.9l17.9,51.1h-4.3l-5.7-16.3h-20.3l-5.6,16.3h-4.3l18-51.1H228.7z M217.6,324.9h17.7l-8.8-25.6
		L217.6,324.9z"/>
	<polygon class="st0" points="261.4,345 261.4,297.9 247.2,297.9 247.2,294.2 279.2,294.2 279.2,297.9 265.6,297.9 265.6,345 	"/>
	<rect x="288.6" y="294.2" class="st0" width="4.2" height="50.8"/>
	<path class="st0" d="M318.9,345.4c-7,0-12-5.1-12-11v-29.6c0-5.9,5.1-11,12-11H329c6.9,0,11.9,5.1,11.9,11v29.6c0,5.9-5,11-11.9,11
		H318.9z M328.7,341.6c4.5,0,8-3.4,8-7.9v-28.3c0-4.5-3.6-7.9-8-7.9h-9.5c-4.5,0-8.1,3.4-8.1,7.9v28.3c0,4.5,3.6,7.9,8.1,7.9H328.7z
		"/>
	<polygon class="st0" points="355,345 355,294.2 359.3,294.2 384.8,337.6 384.8,294.1 389,294.1 389,345 384.6,345 359.2,301.5 
		359.2,345 	"/>
	<path class="st0" d="M26.5,294l17.1,51h-9.4l-3.6-11.3H12.9L9.4,345H0l17.1-51H26.5z M15.5,325.3h12.4l-6.3-19.7L15.5,325.3z"/>
</g>
<g id="Stylized_A">
	<path class="st1" d="M46.2,201.3l25.1,43.3l0,0c4.9,9.8,15.1,16.5,26.8,16.5l0,0v0h166.3l-34.5-59.8H46.2z"/>
	<path class="st1" d="M342.8,201.6c0-6-1.8-11.6-4.8-16.2L240.6,15.9c-5-9.5-15-15.9-26.5-15.9h-51.5l150.5,260.8l23.7-41.1
		C341.5,211.9,342.8,208.4,342.8,201.6"/>
	<polygon class="st1" points="205.3,158.8 138,42.3 70.7,158.8 	"/>
</g>
</svg>
