<svg xmlns="http://www.w3.org/2000/svg" viewBox="0 0 321.28 598.92"><defs><style>.cls-1{fill:#e22022;stroke:#e22022;}.cls-1,.cls-2{stroke-miterlimit:10;stroke-width:0.09px;}.cls-2{fill:#0b6fb7;stroke:#0b6fb7;}</style></defs><g id="Layer_2" data-name="Layer 2"><g id="Layer_1-2" data-name="Layer 1"><path class="cls-1" d="M202,.16c9.4,10.7,12.5,26,9.8,39.8-2.9,15.5-11.5,29.2-21.6,41a199.61,199.61,0,0,1-27.1,25.7c-11.3,9.1-22.4,18.9-29.5,31.7a41.39,41.39,0,0,0-3.3,34.5c6.7,19.4,22.3,33.8,30.8,52.1-9.4-8.3-18.6-16.9-27.2-26-9-9.6-17.5-19.8-23.1-31.8-3.8-8.4-5.5-18.2-2.6-27.1,2.9-9.1,9.4-16.4,15.9-23.2,18.1-18.1,40.4-31.4,58.1-49.8,9.8-10.1,17.9-22.2,20.7-36.1,2.3-10.2,1.2-20.7-.9-30.8Z"/><path class="cls-1" d="M187.17,114.06c19.4-14.3,42.1-23.4,65.1-30-18.2,11.6-37.2,22.2-52.9,37.1-5.7,5.5-11.1,11.8-13.6,19.5-1.9,5.7-1.1,12,1.2,17.4,4.2,9.6,11.3,17.4,16.7,26.2a27.73,27.73,0,0,1,1.9,25.2c-5.3,11.9-15.7,20.6-26.5,27.5-1.4.8-2.6,2.3-4.3,2.5,7.2-6.5,12.8-15.7,12.6-25.6-.2-7.4-4.3-13.9-9.1-19.2-9.9-11.8-18.2-26.8-16.5-42.7s13.1-28.7,25.4-37.9Z"/><path class="cls-2" d="M256,229.66c4.2-5.1,10.9-6.4,17-7.2,10.6-1.4,21.9,1.3,29.9,8.6a27.16,27.16,0,0,1,8.9,24c-1.5,10.3-8.4,18.9-16.2,25.4-14.1,11.3-31.5,17.9-48.9,22.31a15.27,15.27,0,0,1,3.4-2.9c13.2-7.11,26.3-15.41,36-27,5.9-7.2,10.5-16.6,8.6-26.1-2-11-12.7-19-23.6-19.6-5.2-.5-10.1,1.5-15.1,2.5Z"/><path class="cls-2" d="M55,238.76c18.4-7.9,38.4-13,58.5-12.7-11.7,3.4-23.7,6.3-34.7,11.5-2.6,1.4-5.6,2.7-7.1,5.4-.8,2.1,1.4,3.5,3,4.2,6.8,2.8,14.3,3.2,21.6,3.9,25.6,1.7,51.3.7,76.8-.9,25.2-1.6,50.2-5,75.1-9a138.62,138.62,0,0,0-16.2,8.5c-2.6,1.8-5.8,2.3-8.7,3-30.6,6.8-62,8.9-93.2,9.4-12.1.1-24.1-.1-36.1-.9-13.4-.9-26.9-1.9-40-5.4-3.8-1.1-7.8-2.3-10.8-5a3.5,3.5,0,0,1-.2-5c3.3-3.4,7.9-5,12-7Z"/><path class="cls-2" d="M78.57,281.46c5.2-4.1,11.4-6.4,17.6-8.6-2,2.4-4.8,4.7-5,8-.1,2.1,1.6,3.7,3.3,4.7,3.3,1.7,7,2.3,10.7,2.8,19.2,2,38.6,3.1,58,1.8,17.7-.9,35.3-3.8,52.8-6.9,4.8,4.5,10.5,7.6,16.5,10.3a315.38,315.38,0,0,1-64.6,11.5c-20.6,1.4-41.5,1.31-62-2-8.1-1.5-16.4-3.19-23.8-7-3-1.6-6.4-3.7-7.3-7.2-.6-3,1.6-5.7,3.8-7.4Z"/><path class="cls-2" d="M90.17,325.06c4.6-3.69,10.3-5.6,15.9-7.19-1.8,1.69-5,3.79-3.6,6.69,2.7,3.5,7.7,3.9,11.7,4.81,16.9,2.09,34,3.5,50.9,2.19,12.8-.79,25.4-3.1,37.9-5.29a188.91,188.91,0,0,0,22.4,11c-11.8,5.29-24.5,8.69-37.2,11.1a197.51,197.51,0,0,1-65,.9c-9.5-1.71-19.2-3.9-27.8-8.61-3.3-1.89-6.8-4.1-8.2-7.79-1.1-2.91.7-6,3-7.81Z"/><path class="cls-2" d="M34.67,353.37c9.2-3.1,18.7-5.6,28.4-5.91,3.9-.09,7.9.1,11.3,2.1a85.78,85.78,0,0,0-33.6,8.9c-2.3,1.31-4.9,2.81-5.8,5.5,0,3.1,3.5,4.1,5.8,5.1,14.5,5.4,30,7.1,45.2,8.71,45.3,3.79,90.9,2.79,136.2-1.31,17.1-1.9,34.3-3.8,50.9-8.5,5.3-1.8,11.3-3.59,14.8-8.3,2.1-2.79.7-6.29-1.4-8.7,3.4,1.91,8.2,4.31,7.5,8.91-1.3,4.79-6.2,7.29-10.2,9.59-12.8,6.5-26.9,9.81-40.9,12.7-40.7,8-82.4,9.8-123.8,8.61a697.34,697.34,0,0,1-93.2-9.4c-5.5-1.31-11.7-2.41-15.7-6.71-2.6-3-.3-7.2,2.2-9.39,6.3-5.81,14.4-9,22.3-11.9Z"/><path class="cls-2" d="M283.87,387.56c10.1-3.5,20.9-7.19,28.4-15.19-1.3,8.69-8.8,14.69-16.2,18.59-14.2,7.41-30.1,10.81-45.9,13.6-33.4,5.31-67.3,6.6-101.2,6-23.1-.69-46.4-1.6-69.1-6.4-5.4-1.5-11.2-2.5-15.9-5.7,20.2,3.41,40.7,4.81,61.2,5.6a654.46,654.46,0,0,0,101-4.5c19.4-2.69,38.9-6,57.7-12Z"/><path class="cls-1" d="M20.37,535.87c.1-32.81-.1-65.6.1-98.5,6.8.19,13.6,0,20.4.19-.1,36.71,0,73.5-.1,110.31-.2,10.29-.4,21.09-5.4,30.29-5.5,9.8-15.3,16.71-25.7,20.71-3.3-3.6-6.3-7.41-9.6-11h0c8.4-4.91,16.8-11.91,18.8-22,1.9-9.91,1.3-20,1.5-30Z"/><path class="cls-1" d="M59.77,476.87c13.5-5.81,28.5-8.81,43.2-7.21,7.6.9,15.5,3.71,20.4,9.8,4.1,5.2,5.6,11.91,5.5,18.41V565h-15.1c-.5-3.3-1-6.69-1.4-10.09-5.7,4.5-11.8,8.79-18.9,10.59a40.78,40.78,0,0,1-24.9-1.19A21.86,21.86,0,0,1,56,549.87c-2.5-9.31-1.2-20.21,5.4-27.71,5.9-6.89,14.8-10.29,23.6-11.89,8.1-1.61,16.4-1.61,24.7-1.61-.2-6.29,1-13.2-2.6-18.79-2.9-4.31-8.2-6-13.1-6.31-10.7-.9-21.3,1.81-31.4,5.31-1-4-1.9-8-2.8-12m24.8,46.4c-4.4,1.39-8.5,4.6-9.7,9.19-1.4,5.1-1,11.1,2.3,15.41s9,5.19,14,4.59c7-.8,13.1-4.8,18.5-9.09,0-7.5-.1-14.91,0-22.41-8.4,0-17-.5-25.1,2.31Z"/><path class="cls-1" d="M235.57,476.87c13.6-5.81,28.6-8.91,43.4-7.21,7.4.9,15,3.61,19.9,9.4,4.6,5.5,6,12.81,5.9,19.81-.1,22.09.1,44.09-.2,66.19-5-.19-10,.1-15-.19-.5-3.41-.9-6.71-1.5-10-7,6-15.4,10.9-24.9,11.69-8.7.81-18.5-.29-25.3-6.5-7.1-6.6-8.3-17.29-6.5-26.4,1.7-8.39,8-15.29,15.6-19,11.9-5.79,25.5-6.1,38.5-6-.2-6.1.9-12.6-2.2-18.1-2.4-4.4-7.5-6.4-12.3-6.9-11.1-1.2-22.2,1.61-32.6,5.21-.9-4-1.9-8-2.8-12m24.5,46.5c-4.2,1.4-8.1,4.59-9.4,9-1.4,5.09-1,11.09,2.2,15.5s9.2,5.19,14.3,4.59c6.9-1,13.2-4.8,18.4-9.4-.2-7.29-.1-14.69-.1-22.1-8.5,0-17.2-.5-25.4,2.41Z"/><path class="cls-1" d="M140.27,470.87h21c4.1,13.19,8.1,26.29,12.2,39.5,2.4,8.09,5.4,16.09,7.1,24.4.9,3.69,1.7,7.5,2.8,11.1,8.6-24.31,15.2-49.41,18.6-75h20.4c-5.9,32.4-15.2,64.29-29.2,94.09h-24c-9.6-31.4-19.3-62.69-28.9-94.09Z"/><path class="cls-1" d="M308.76,469.05h-2.45v-.89h6v.89h-2.47v7.19h-1.06Z"/><path class="cls-1" d="M320,472.69c-.06-1.12-.14-2.49-.14-3.49h0c-.29.94-.61,2-1,3.07l-1.43,3.93h-.79l-1.32-3.85c-.38-1.15-.69-2.19-.92-3.15h0c0,1-.08,2.35-.15,3.58l-.22,3.46h-1l.56-8.08h1.33l1.38,3.91c.34,1,.6,1.88.82,2.72h0c.22-.81.5-1.7.86-2.72l1.44-3.91h1.33l.51,8.08h-1Z"/></g></g></svg>