<?xml version="1.0" encoding="utf-8"?>
<!-- Generator: Adobe Illustrator 25.2.3, SVG Export Plug-In . SVG Version: 6.00 Build 0)  -->
<svg version="1.1" id="Capa_1" xmlns="http://www.w3.org/2000/svg" xmlns:xlink="http://www.w3.org/1999/xlink" x="0px" y="0px"
	 viewBox="0 0 271.52 309.4" style="enable-background:new 0 0 271.52 309.4;" xml:space="preserve">
<g>
	<path d="M139.64,309.4c-8.06-6.44-15.99-12.77-23.39-18.69c5.2-9.28,10.69-18.16,15.26-27.48c4.56-9.32,6.96-19.37,6.81-29.75
		c-7.26,2.54-14.3,5.38-21.56,7.47c-17.81,5.14-36.03,6.08-54.33,3.73c-19.49-2.51-38.92-5.59-58.9-8.49
		c1.65-10.91,3.18-20.96,4.74-31.3c21.12,2.52,41.54,1.68,61.03-8.84c-2.2-1.67-4.1-3.12-6.01-4.57
		c-18.58-14.1-32.09-32.29-41.25-53.46c-7.91-18.3-14.53-37.15-21.72-55.76c-0.14-0.37-0.16-0.8-0.32-1.62
		c9.4-3.68,18.87-7.39,28.53-11.17c8.48,19.35,19.13,36.83,37.72,48.19c1.33-7.24,2.34-14.32,3.96-21.26
		c4-17.12,11.95-32.48,21.85-46.87c11.99-17.44,25.71-33.5,39.99-49.5c7.95,6.35,15.85,12.66,24.02,19.19
		c-12.6,17.01-22.3,35.08-22.93,56.96c5.81-2.18,11.23-4.43,16.78-6.26c16.31-5.36,33.08-6.89,50.18-5.95
		c22.16,1.21,43.87,5.31,65.57,9.59c0.59,0.12,1.17,0.31,2.15,0.58c-1.52,10.02-3.05,20.08-4.57,30.01c-10.65,0-21-0.48-31.28,0.13
		c-10.36,0.62-20.25,3.61-29.55,9.07c4.23,3.42,8.3,6.57,12.21,9.9c15.53,13.24,26.86,29.72,34.85,48.24
		c7.86,18.21,14.43,36.98,21.55,55.5c0.21,0.54,0.28,1.12,0.47,1.89c-9.53,3.73-18.93,7.4-28.56,11.17
		c-8.5-19.37-19.12-36.82-37.83-48.22c-1.12,6.58-1.94,12.78-3.27,18.87c-4.19,19.26-12.82,36.58-24.6,52.16
		c-11.57,15.3-24.04,29.92-36.12,44.83C140.71,308.23,140.22,308.75,139.64,309.4z M176.68,154.67
		c0.15-22.59-18.13-40.85-41.01-40.99c-22.08-0.13-40.69,18.41-40.83,40.68c-0.14,22.74,18.19,41.15,41.13,41.31
		C158.26,195.82,176.53,177.43,176.68,154.67z"/>
</g>
</svg>
