<?xml version="1.0" encoding="utf-8"?>
<!-- Generator: Adobe Illustrator 25.2.3, SVG Export Plug-In . SVG Version: 6.00 Build 0)  -->
<svg version="1.1" id="Capa_1" xmlns="http://www.w3.org/2000/svg" xmlns:xlink="http://www.w3.org/1999/xlink" x="0px" y="0px"
	 viewBox="0 0 566.1 242.1" style="enable-background:new 0 0 566.1 242.1;" xml:space="preserve">
<style type="text/css">
	.st0{fill:#4C8781;}
	.st1{fill:#98D8BE;}
</style>
<g>
	<path class="st0" d="M45.6,65.4v-1.6c0-5.4-4.9-9.3-11.5-9.3c-6,0-9.9,3.3-9.9,8.2c0,2.3,1,4.7,2.5,5.8c2.7,2.1,2.9,2.1,15.3,6
		c20.2,6.2,28.1,14.2,28.1,28.7c0,17.5-14,29.1-34.9,29.1C14,132.4,1,121.5,0,102.9h23.7c1.2,7.8,4.7,11.3,11.8,11.3
		c5.8,0,9.9-3.5,9.9-8.5c0-5.4-3.5-8-16.7-12C9.3,87.7,0.6,79,0.6,64.8c0-17.1,13.8-28.5,34.8-28.5c20.6,0,33,10.9,33.6,29.1H45.6z"
		/>
	<path class="st0" d="M102.5,90.3c2.1,12.4,11.3,20.2,23.5,20.2c9.1,0,16.9-4.5,20.8-11.6l22.7,6.2c-8.9,17.5-24.7,27.4-43.7,27.4
		c-28.5,0-48.9-20.2-48.9-48.1c0-28.1,19.6-47.9,47.4-47.9c28.7,0,48.7,20.2,48.7,49.1l-0.2,4.9h-70.3V90.3z M147.5,76.1
		c-2.1-11.8-10.7-19-22.9-19c-11.8,0-19.8,6.8-22.1,19H147.5z"/>
	<path class="st0" d="M208.3,39.4v13.2c2.5-6.6,4.3-9.3,8-12c3.9-2.7,9.1-4.3,14.6-4.3c0.6,0,1.6,0,2.9,0.2v25.2
		c-1.9-0.2-3.9-0.4-5.2-0.4c-6.8,0-13,3.1-16.5,8.2c-2.9,4.1-3.7,8-3.7,16.5v43.3h-24.7V39.4H208.3z"/>
	<path class="st0" d="M333.5,39.4l-32.8,89.9h-25.4l-32.4-89.9h25.6L288.3,93l20-53.6H333.5z"/>
	<path class="st0" d="M369.2,14c0,7.6-5.8,13.4-13.6,13.4c-8,0-13.8-5.8-13.8-13.6c0-8,5.8-13.8,13.8-13.8
		C363.6,0,369.2,5.8,369.2,14z M367.9,129.3h-24.7V39.4h24.7V129.3z"/>
	<path class="st0" d="M466.3,119c-10.3,9.3-21,13.4-34.6,13.4c-27.4,0-47.6-20.2-47.6-47.6c0-28.3,19.8-48.5,47.8-48.5
		c13.4,0,24.5,4.7,35.9,14.9l-16.5,14.9c-5.4-5.4-11.3-8-18.4-8c-13.6,0-23.7,11.1-23.7,25.8c0,15.3,10.3,26.4,24.7,26.4
		c6.4,0,11.1-1.9,17.5-7.6L466.3,119z"/>
	<path class="st0" d="M495.6,90.3c2.1,12.4,11.3,20.2,23.5,20.2c9.1,0,16.9-4.5,20.8-11.6l22.7,6.2c-8.9,17.5-24.7,27.4-43.7,27.4
		c-28.5,0-48.9-20.2-48.9-48.1c0-28.1,19.6-47.9,47.4-47.9c28.7,0,48.7,20.2,48.7,49.1l-0.2,4.9h-70.3V90.3z M540.6,76.1
		c-2.1-11.8-10.7-19-22.9-19c-11.8,0-19.8,6.8-22.1,19H540.6z"/>
	<path class="st0" d="M149.7,148.1v11.1c6.6-10.3,13.2-14.2,24.5-14.2c8.5,0,16.7,3.1,22.1,8.3c5.8,5.8,8,13,8,27.8V238h-24.7v-55.7
		c0-5-0.6-8-2.1-10.5c-2.3-3.7-7-6-11.8-6c-9.5,0-15.9,7.2-15.9,17.7V238H125v-89.9L149.7,148.1L149.7,148.1z"/>
	<path class="st0" d="M471.5,148.1L442.2,238h-25.6l-15.7-55.1L384.8,238h-26.2l-28.9-89.9h25l18.1,54.7l15.7-54.7h23.7l16.1,54.7
		l18.2-54.7H471.5z"/>
	<path class="st0" d="M457.1,237.5h-2.5v-8.9h-2.7v-2h7.9v2h-2.7L457.1,237.5L457.1,237.5z M463.9,237.5h-2.5v-10.9h2.8l3.3,6.4
		l3.3-6.4h2.8v10.9H471v-6.3l-3.6,6.8l-3.6-6.8v6.3H463.9z"/>
	<path class="st1" d="M266.8,144.4c-25.8,2.9-46.1,24.4-47.6,50.3c-1.1,18,6.7,34.2,19.4,44.7c4.5,3.7,11.2,3.5,15.3-0.7
		c4.9-5,11.6-8,19.1-8s14.3,3.1,19.1,8c4.1,4.2,10.7,4.4,15.2,0.7c11.9-9.9,19.5-24.8,19.5-41.5
		C326.8,166.2,299.3,140.8,266.8,144.4z M272.9,224.9c-14.8,0-26.9-12-26.9-26.9c0-14.8,12-26.9,26.9-26.9s26.9,12,26.9,26.9
		C299.8,212.8,287.8,224.9,272.9,224.9z"/>
</g>
</svg>
